<svg version="1.1" id="Layer_1" xmlns="http://www.w3.org/2000/svg" xmlns:xlink="http://www.w3.org/1999/xlink" x="0px" y="0px"
	 width="100%" viewBox="0 0 140 140" enable-background="new 0 0 140 140" xml:space="preserve">
<path fill="#FEFBFB" opacity="1.000000" stroke="none" 
	d="
M19.000000,1.000000 
	C23.689257,1.000000 28.378511,1.000000 33.187920,1.223715 
	C34.198994,2.624332 35.089912,3.801235 36.090710,5.301131 
	C39.254444,10.349600 42.169510,15.174509 45.442436,19.743042 
	C46.493874,21.210693 48.369583,22.699419 50.072346,22.992535 
	C64.252838,25.433596 77.539482,29.472185 87.365891,40.993729 
	C88.427330,42.238289 90.753464,43.069233 92.450661,43.003292 
	C108.703995,42.371803 123.575874,46.234184 136.832642,56.410309 
	C136.851898,69.552704 136.805283,82.249336 136.433426,95.056190 
	C131.414398,107.128563 126.707268,119.085564 122.083076,131.074570 
	C121.923309,131.488800 122.592979,132.222931 122.458359,132.863922 
	C111.294785,134.675919 100.537766,136.888840 90.086861,131.750305 
	C89.955399,129.653809 89.034286,127.718513 89.533562,126.274231 
	C91.639343,120.182655 94.277588,114.277893 96.520164,108.230293 
	C101.116234,95.835999 105.712151,83.438385 110.027710,70.945274 
	C111.391953,66.995926 110.693764,63.295174 105.939827,61.663364 
	C101.104126,60.003487 98.662949,62.872993 97.039444,66.609711 
	C94.831551,71.691513 92.954720,76.919907 91.015541,82.115158 
	C86.545372,94.091194 82.246346,106.133438 77.581276,118.032532 
	C76.608948,120.512611 74.719788,122.950096 72.623199,124.612984 
	C66.405968,129.544144 60.404461,127.143059 54.327610,123.676849 
	C48.091583,120.119827 44.808308,111.976006 47.390594,105.490967 
	C52.446362,92.794121 57.479637,80.087379 62.381073,67.330505 
	C64.162315,62.694508 66.124619,57.991550 66.853195,53.146061 
	C67.209717,50.775040 65.512840,46.449890 63.710590,45.775833 
	C60.830853,44.698780 56.633595,44.707798 54.660187,48.772598 
	C53.720737,50.707680 52.706188,52.620979 51.952705,54.629330 
	C46.172070,70.037094 40.477100,85.476997 34.693287,100.883560 
	C31.530861,109.307442 21.777260,112.952377 13.828277,108.847008 
	C11.663291,107.728874 9.371396,106.856461 6.981578,105.517830 
	C3.604122,98.002625 2.982757,90.771629 6.466838,83.252090 
	C10.870895,72.254349 14.919093,61.386147 19.305990,50.656422 
	C21.061628,46.362373 21.494114,43.192741 16.319187,41.111862 
	C14.833588,40.514488 13.918267,38.482437 12.759062,37.093506 
	C10.819033,34.769016 8.893144,32.432728 6.592255,29.872032 
	C5.446701,22.034407 5.681983,14.793842 11.971752,9.059487 
	C14.588640,6.673683 16.673315,3.704116 19.000000,1.000000 
z"/>
<path fill="#000000" opacity="1.000000" stroke="none" 
	d="
M89.950577,132.137375 
	C100.537766,136.888840 111.294785,134.675919 122.916679,132.938385 
	C126.273170,132.972549 128.754333,133.032120 131.233963,132.993683 
	C135.025467,132.934937 136.967255,130.928452 136.955078,127.169357 
	C136.920303,116.428123 136.828217,105.687088 136.758667,94.945969 
	C136.805283,82.249336 136.851898,69.552704 136.922699,55.959061 
	C136.956223,40.325390 136.973038,25.588724 136.971619,10.852059 
	C136.970963,3.918587 136.144592,3.091617 129.459457,3.064378 
	C123.996788,3.042119 118.534248,2.985631 112.980476,2.598315 
	C112.823776,2.106343 112.683723,1.946342 112.708031,1.817287 
	C112.760902,1.536488 112.897575,1.271467 113.000000,0.999999 
	C122.324524,1.000000 131.649048,1.000000 140.980179,0.999998 
	C140.986786,47.613804 140.986786,94.227608 140.986786,140.920715 
	C94.430359,140.920715 47.860550,140.920715 1.145370,140.920715 
	C1.145370,94.333672 1.145370,47.666893 1.145370,1.000000 
	C6.737951,1.000000 12.399267,1.000000 18.530293,1.000000 
	C16.673315,3.704116 14.588640,6.673683 11.971752,9.059487 
	C5.681983,14.793842 5.446701,22.034407 6.443798,30.258821 
	C6.462078,31.483698 6.082215,32.092739 6.083326,32.701084 
	C6.114217,49.613159 6.183747,66.525169 6.246891,83.437187 
	C2.982757,90.771629 3.604122,98.002625 6.643886,105.790863 
	C6.334491,113.349312 6.076992,120.282303 6.131680,127.212830 
	C6.160408,130.853424 8.156768,132.963989 12.509686,132.849472 
	C32.972507,132.898590 52.975571,132.873489 73.441360,132.907150 
	C78.270683,132.920700 82.637268,132.875488 87.316566,132.889374 
	C88.403038,132.678101 89.176811,132.407730 89.950577,132.137375 
z"/>
<path fill="#AC3C44" opacity="1.000000" stroke="none" 
	d="
M112.531342,0.999999 
	C112.897575,1.271467 112.760902,1.536488 112.708031,1.817287 
	C112.683723,1.946342 112.823776,2.106343 112.507607,2.620771 
	C89.040138,3.000707 65.954002,2.957266 42.869141,3.108886 
	C40.569042,3.123993 38.276749,4.326645 35.980831,4.978139 
	C35.089912,3.801235 34.198994,2.624332 33.654037,1.223715 
	C60.020893,1.000000 86.041786,1.000000 112.531342,0.999999 
z"/>
<path fill="#DA2D34" opacity="1.000000" stroke="none" 
	d="
M36.090710,5.301131 
	C38.276749,4.326645 40.569042,3.123993 42.869141,3.108886 
	C65.954002,2.957266 89.040138,3.000707 112.598785,2.966775 
	C118.534248,2.985631 123.996788,3.042119 129.459457,3.064378 
	C136.144592,3.091617 136.970963,3.918587 136.971619,10.852059 
	C136.973038,25.588724 136.956223,40.325390 136.856812,55.513302 
	C123.575874,46.234184 108.703995,42.371803 92.450661,43.003292 
	C90.753464,43.069233 88.427330,42.238289 87.365891,40.993729 
	C77.539482,29.472185 64.252838,25.433596 50.072346,22.992535 
	C48.369583,22.699419 46.493874,21.210693 45.442436,19.743042 
	C42.169510,15.174509 39.254444,10.349600 36.090710,5.301131 
z"/>
<path fill="#D92F37" opacity="1.000000" stroke="none" 
	d="
M12.049921,132.775269 
	C8.156768,132.963989 6.160408,130.853424 6.131680,127.212830 
	C6.076992,120.282303 6.334491,113.349312 6.800055,106.144310 
	C9.371396,106.856461 11.663291,107.728874 13.828277,108.847008 
	C21.777260,112.952377 31.530861,109.307442 34.693287,100.883560 
	C40.477100,85.476997 46.172070,70.037094 51.952705,54.629330 
	C52.706188,52.620979 53.720737,50.707680 54.660187,48.772598 
	C56.633595,44.707798 60.830853,44.698780 63.710590,45.775833 
	C65.512840,46.449890 67.209717,50.775040 66.853195,53.146061 
	C66.124619,57.991550 64.162315,62.694508 62.381073,67.330505 
	C57.479637,80.087379 52.446362,92.794121 47.390594,105.490967 
	C44.808308,111.976006 48.091583,120.119827 54.327610,123.676849 
	C60.404461,127.143059 66.405968,129.544144 72.623199,124.612984 
	C74.719788,122.950096 76.608948,120.512611 77.581276,118.032532 
	C82.246346,106.133438 86.545372,94.091194 91.015541,82.115158 
	C92.954720,76.919907 94.831551,71.691513 97.039444,66.609711 
	C98.662949,62.872993 101.104126,60.003487 105.939827,61.663364 
	C110.693764,63.295174 111.391953,66.995926 110.027710,70.945274 
	C105.712151,83.438385 101.116234,95.835999 96.520164,108.230293 
	C94.277588,114.277893 91.639343,120.182655 89.533562,126.274231 
	C89.034286,127.718513 89.955399,129.653809 90.086861,131.750305 
	C89.176811,132.407730 88.403038,132.678101 87.205933,132.508575 
	C85.584335,131.712494 84.387405,131.051453 83.187614,131.046188 
	C67.355652,130.976837 51.523197,130.977798 35.691204,131.042648 
	C34.459305,131.047699 33.229904,131.662079 31.545597,132.000061 
	C28.064161,132.005508 25.036470,132.004196 21.776289,131.734528 
	C20.025917,131.647491 18.508039,131.828796 16.616047,132.015167 
	C14.844597,132.271896 13.447259,132.523575 12.049921,132.775269 
z"/>
<path fill="#D1323A" opacity="1.000000" stroke="none" 
	d="
M6.466838,83.252090 
	C6.183747,66.525169 6.114217,49.613159 6.083326,32.701084 
	C6.082215,32.092739 6.462078,31.483698 6.812845,30.488192 
	C8.893144,32.432728 10.819033,34.769016 12.759062,37.093506 
	C13.918267,38.482437 14.833588,40.514488 16.319187,41.111862 
	C21.494114,43.192741 21.061628,46.362373 19.305990,50.656422 
	C14.919093,61.386147 10.870895,72.254349 6.466838,83.252090 
z"/>
<path fill="#D22F37" opacity="1.000000" stroke="none" 
	d="
M136.433426,95.056190 
	C136.828217,105.687088 136.920303,116.428123 136.955078,127.169357 
	C136.967255,130.928452 135.025467,132.934937 131.233963,132.993683 
	C128.754333,133.032120 126.273170,132.972549 123.334381,132.882416 
	C122.592979,132.222931 121.923309,131.488800 122.083076,131.074570 
	C126.707268,119.085564 131.414398,107.128563 136.433426,95.056190 
z"/>
<path fill="#D32A2F" opacity="1.000000" stroke="none" 
	d="
M31.999344,131.993286 
	C33.229904,131.662079 34.459305,131.047699 35.691204,131.042648 
	C51.523197,130.977798 67.355652,130.976837 83.187614,131.046188 
	C84.387405,131.051453 85.584335,131.712494 86.893234,132.449493 
	C82.637268,132.875488 78.270683,132.920700 73.128601,132.636597 
	C58.901859,132.202606 45.450603,132.097946 31.999344,131.993286 
z"/>
<path fill="#C6474B" opacity="1.000000" stroke="none" 
	d="
M31.545597,132.000061 
	C45.450603,132.097946 58.901859,132.202606 72.665878,132.577835 
	C52.975571,132.873489 32.972507,132.898590 12.509686,132.849472 
	C13.447259,132.523575 14.844597,132.271896 17.034492,132.017715 
	C19.220963,132.011108 20.614872,132.006989 22.008781,132.002884 
	C25.036470,132.004196 28.064161,132.005508 31.545597,132.000061 
z"/>
<path fill="#D32A2F" opacity="1.000000" stroke="none" 
	d="
M21.776289,131.734528 
	C20.614872,132.006989 19.220963,132.011108 17.408607,132.012665 
	C18.508039,131.828796 20.025917,131.647491 21.776289,131.734528 
z"/>
</svg>